<?xml version="1.0" encoding="utf-8"?>
<!DOCTYPE svg PUBLIC "-//W3C//DTD SVG 1.1//EN" "http://www.w3.org/Graphics/SVG/1.1/DTD/svg11.dtd">
<svg version="1.1" id="Layer_1" xmlns="http://www.w3.org/2000/svg" xmlns:xlink="http://www.w3.org/1999/xlink" x="0px" y="0px"
	 viewBox="0 0 1845.188 1608.6058" enable-background="new 0 0 1845.188 1608.6058" xml:space="preserve">
<g>
	<path d="M897.1879,9.8639c9.4959,7.898,17.3568,16.681,16.0887,32.0877c-2.3192-2.8366-3.7884-5.0172-5.628-6.8197
		c-9.9154-9.7152-20.6685-10.3135-35.2986-5.4194c-2.9399,0.9835-2.6241,3.6809-2.924,5.8048
		c-1.6083,11.3869,0.3691,22.2521,5.5071,32.4952c11.8016,23.5274,31.3912,38.5369,54.8656,48.7793
		c38.9593,16.9988,78.9595,16.9154,119.3108,5.701c30.2096-8.3959,57.3376-23.0882,82.6675-41.353
		c16.3588-11.796,33.0344-23.1118,51.4347-31.6016c6.6716-3.0783,13.5295-5.5917,20.755-7.0607
		c14.5696-2.962,27.392,0.2964,38.3545,10.5163c8.6084,8.0254,15.2966,17.5764,21.7328,27.3079
		c14.6116,22.0924,28.9321,44.3759,46.3076,64.4957c10.9237,12.6489,23.272,23.823,35.4255,35.2149
		c2.849,2.6706,5.7113,5.3793,8.2035,9.759c-5.8086-2.1394-10.1705-4.7888-14.5663-7.3396
		c-20.0929-11.6598-36.8348-27.3722-52.9751-43.8237c-14.9373-15.2253-30.0742-30.1772-47.3939-42.8413
		c-18.3828-13.4414-38.2509-16.0609-59.7472-10.2771c-21.0399,5.661-39.4987,16.6412-57.7164,28.0935
		c-17.8949,11.2493-35.2045,23.4564-54.7128,31.9883c-27.2664,11.9248-55.4992,19.3718-85.4147,16.2738
		c-46.7903-4.8456-87.1045-22.6265-115.946-61.535c-8.1653-11.0154-13.0043-23.5483-15.391-37.0317
		c-2.9315-16.5608,2.2021-30.4687,13.6572-42.465c3.6528-3.8254,8.2644-6.617,11.4036-10.9494
		C882.5212,9.8639,889.8546,9.8639,897.1879,9.8639z"/>
	<path d="M433.1834,1501.6714c-2.7542,1.9739-5.592,3.8418-8.2477,5.9403c-10.326,8.1598-20.4243,16.6184-30.9332,24.5331
		c-9.9293,7.4779-20.5938,13.6293-33.5574,14.0787c-0.4983,0.0172-1.0313,0.2498-1.4859,0.1351
		c-12.6615-3.1954-23.7897,2.2272-35.176,6.213c-0.9153,0.3203-1.866,0.5394-2.9152,0.8383
		c1.5221-5.9771,2.4118-6.9611,16.1132-17.8667c-5.8096-3.4218-11.5487-6.5386-17.8763-8.4089
		c-3.3384-0.9869-6.1719,0.5817-8.8952,2.309c-6.0028,3.8075-11.7013,8.1378-18.4831,10.9771
		c4.2411-13.6768,22.8703-26.639,37.1566-25.4991c2.4676,0.1968,3.5057-0.4767,5.154-1.7683
		c5.9127-4.6331,12.1034-8.8193,19.6272-10.5718c2.4673-0.575,5.0693-1.1206,8.0381-3.3617
		c-12.6802-0.7744-24.2486-0.7795-35.142,4.0813c-3.8712,1.7273-4.8198,0.7869-5.1773-3.0541
		c-1.0695-11.4899-0.4733-12.2445,11.3631-13.6584c10.5725-1.2629,21.3681,0.1932,31.8044-2.6697
		c3.3242-0.912,6.7426-1.5618,10.3499-3.7745c-9.4844-2.4078-18.2237-0.3806-26.9317,0.2645
		c-9.6349,0.7137-19.2332,1.9917-28.9229,1.4645c-2.1497-0.1169-4.3214-0.3804-6.4158-0.8657
		c-8.5075-1.9707-11.4924-9.7345-6.5792-16.8922c1.1985-1.746,3.0786-2.0393,4.8807-1.9797
		c8.8211,0.2917,17.6347,0.8278,26.4567,1.0693c4.9672,0.136,5.1115,5.0503,8.0186,8.0098
		c7.9587-21.2063,24.9254-33.6721,41.7583-46.1884c8.1407-6.0531,15.9128-12.6835,25.0715-17.2635
		c1.54-0.7701,2.032-1.9896,2.3155-3.5507c0.8722-4.8035,0.325-9.6351,0.3457-14.4495c0.0134-3.1044-2.6688-2.4249-4.4791-2.5649
		c-14.4499-1.1167-28.9202-1.9961-43.3515-3.3094c-4.3668-0.3975-9.2946,1.5425-12.9905-3.507
		c-1.1744-1.6046-5.679-0.671-8.6325-1.0905c-19.283-2.7377-37.3965-9.3938-55.2307-16.8438
		c-17.2474-7.2047-33.7056-15.9226-49.2775-26.3289c-5.9244-3.9591-9.4019-10.5503-16.1964-13.6331
		c-13.2044-5.9913-24.9872-14.3092-35.795-23.9365c-5.8427-5.2045-11.3743-10.7599-17.0089-16.1958
		c-3.769-3.636-6.6355-8.2131-12.3871-9.54c-3.69-0.8514-4.3941-5.1774-6.7272-7.7035
		c-6.4199-6.9515-13.2108-13.5804-18.3672-21.6246c-1.6353-2.5511-3.3434-4.9364-3.309-8.1538
		c0.0266-2.4895-1.5889-4.3231-2.8877-6.2451c-11.6514-17.2413-23.8129-34.1165-35.1269-51.6177
		c-6.6711-10.3192-4.6209-20.0627-4.2124-30.3254c0.1428-3.5867,3.36-5.9672,5.9586-8.3406
		c7.7219-7.0526,9.7688-17.6122,5.2536-27.0042c-7.4269-15.4484-15.2123-30.7483-20.59-47.0815
		c-2.7621-8.3892-5.319-16.8798-3.5842-25.916c0.3288-1.7124-0.8635-2.7239-1.5191-4.041
		c-5.4661-10.9815-15.3534-19.9138-18.3208-31.6722c-5.4955-21.7762-14.2525-42.4156-20.0753-64.0601
		c-17.0247-63.284-26.204-127.521-24.5319-193.0835c0.9217-36.1398,3.6156-72.1887,11.5448-107.6174
		c1.3092-5.8495,3.7413-11.3369,5.88-16.9316c1.5865-4.1504,1.2652-8.9936,2.1181-13.4664
		c10.2651-53.837,33.9705-100.9904,70.8312-141.493c19.0179-20.8969,40.8528-38.1846,66.557-50.2648
		c4.3621-2.0501,8.8045-4.0429,13.3949-5.4649c5.6527-1.751,10.7254-4.2724,14.908-8.4662
		c1.1181-1.1211,2.4055-2.0351,3.9442-1.8463c13.7503,1.6873,26.5653-3.7009,39.8907-5.1765
		c27.782-3.0764,54.8457-1.2133,80.4953,11.2614c8.6078,4.1864,14.9622,11.0062,21.8492,17.2552
		c0.616,0.5589,1.3971,1.1426,0.9698,2.0531c-0.4942,1.0529-1.6115,1.1107-2.6146,1.0237
		c-5.4724-0.4753-10.9744-0.761-16.4052-1.5385c-21.0988-3.0204-42.1386-6.7676-63.5921-5.4156
		c-23.6957,1.4934-45.8491,7.7424-65.5202,21.5897c-5.8132,4.0921-11.8902,7.8093-17.8795,11.7199
		c1.6837,2.2,3.1176,1.9117,5.1156,0.4495c2.5292-1.851,5.4198-3.2205,8.2005-4.7119c2.5277-1.3557,3.8013-0.6959,3.4205,2.3329
		c-1.6326,12.9861-5.8538,24.6228-17.0145,32.637c-5.6685,4.0704-10.2538,8.9358-12.4214,15.8047
		c-1.8781,5.9516-0.9703,9.8385,4.2005,13.489c9.0947,6.4208,19.0619,8.0267,29.2946,3.3292
		c9.3204-4.2786,11.7926-13.005,12.5687-22.3216c0.7561-9.0774-0.8222-17.9224-3.1207-26.6706
		c-0.314-1.1952-1.4024-2.4977-0.172-3.7288c1.3893-1.3902,2.9086-0.3267,4.1868,0.1741
		c9.8466,3.8579,16.403,11.2526,20.9323,20.4691c14.288,29.0746,1.6915,61.2086-29.0239,74.4026
		c-12.7851,5.4919-26.3702,8.0996-39.8632,11.0386c-1.6169,0.3522-3.2241,0.7492-5.4331,1.2648
		c13.0508,14.5702,13.3463,33.1697,17.4045,50.4509c5.9159,25.192,18.5749,45.0339,42.6512,56.4196
		c12.2831,5.8087,25.1382,9.6921,38.5228,11.8449c5.4192,0.8717,10.8965,1.383,16.3145,2.2614
		c2.0079,0.3255,4.3775-0.0359,6.0858,2.2063c-4.3015,2.4774-9.0414,2.3665-13.5255,2.9871
		c-20.4646,2.8329-40.5983,1.9277-59.764-6.6882c-20.9087-9.3995-34.5078-26.1326-45.0529-45.7771
		c-2.7535-5.1295-5.5167-10.285-7.7874-15.6356c-4.1614-9.8058-10.677-17.34-19.4059-23.481
		c-5.8004-4.0807-11.0177-4.6304-17.1487-1.4666c-2.8623,1.4771-6.4061,5.0602-8.7757,3.3368
		c-2.8721-2.0889-0.1407-6.4795,0.4029-9.7424c7.0558-42.3539,24.6811-80.2606,48.94-115.3381
		c4.1415-5.9884,8.2194-12.0209,12.726-18.6175c-5.6921,0.8613-7.9049,5.0963-10.4902,8.4415
		c-30.4185,39.3581-48.0306,84.4996-59.6005,132.3786c-12.87,53.259-14.8336,107.4821-13.9244,161.8734
		c0.9463,56.6035,6.582,112.6876,21.8598,167.4677c2.8126,10.0847,6.1981,19.9823,8.3743,30.2867
		c1.1885,5.6277,4.8967,10.7201,7.4394,16.0678c0.4237,0.8912,1.064,1.8854,0.9858,2.7779
		c-1.0889,12.416,5.4484,22.7641,9.2034,33.8323c2.5654,7.5616,5.7736,14.9171,7.5752,22.7202
		c0.677,2.932,2.6173,4.9796,4.1297,7.3229c10.2377,15.863,18.1806,32.9427,26.2502,49.9276
		c14.1506,29.7839,33.7036,55.7834,55.2022,80.5006c6.4001,7.3583,13.455,14.2399,17.8327,23.1815
		c0.4076,0.8325,1.3377,1.5447,2.1915,2.0028c15.6005,8.3727,28.0753,21.3154,43.7979,29.5884
		c18.3603,9.661,36.9102,18.5452,57.8163,21.0693c17.564,2.1205,34.8998-0.0978,52.204-2.8795
		c9.6832-1.5568,19.3835-3.0078,29.0736-4.5217c0.6368-0.0995,1.3387-0.1898,1.8672-0.5162
		c11.6445-7.1949,24.5019-12.0398,36.3686-18.8019c29.3682-16.7352,46.7475-42.7758,57.6601-73.9355
		c9.4572-27.0042,13.9691-55.1238,19.043-83.1163c7.2533-40.0157,15.4611-79.7161,31.8333-117.3016
		c18.0119-41.3499,41.4412-78.9857,73.7285-110.7554c38.8862-38.2631,84.8396-63.1082,139.4924-68.1348
		c60.8078-5.5927,114.3762,11.5635,159.7659,54.2179c42.9145,40.3286,78.1229,86.8543,113.2833,133.5876
		c16.4255,21.8322,33.0125,43.5397,51.5038,63.7156c29.2162,31.8776,64.6372,54.7281,103.9293,72.0863
		c15.6932,6.9329,31.6003,13.3175,47.7561,19.0389c7.0631,2.5015,14.7229,2.575,22.1516,3.3787
		c27.2917,2.952,54.51,3.6256,81.3789-3.4932c47.5841-12.6071,85.0256-59.3302,85.0187-106.5059
		c-0.0032-21.7335-7.5192-41.4174-17.8451-60.1665c-17.215-31.2574-41.4241-56.61-67.9404-79.9468
		c-33.8387-29.7813-70.9755-55.1998-107.7611-81.081c-27.2452-19.1689-54.7014-38.0837-79.2477-60.7672
		c-11.1666-10.3192-21.5701-21.3268-29.2141-34.6369c-2.9116-5.0698-4.0435-11.1722-7.0116-15.8625
		c-4.1841-6.6118-4.072-14.5152-8.9205-20.9641c-9.1835-12.2144-12.821-27.0323-15.286-41.8529
		c-9.9911-60.0738-6.4432-119.1896,14.4203-176.7092c9.1365-25.1885,25.4862-45.8918,43.7942-65.0469
		c25.2813-26.451,54.4352-47.9539,85.9167-66.4108c2.5826-1.5142,5.2706-2.8523,7.9337-4.2255
		c18.9114-9.7516,38.3768-10.7392,57.0878-0.7117c22.5209,12.0694,46.4298,18.9074,71.3998,22.8824
		c1.4758,0.2349,2.9319,0.62,4.3795,1.002c15.7976,4.1692,19.6227,9.7869,17.7173,25.9885
		c5.4821-5.4159,8.36-17.0592,7.5923-28.0837c-0.3824-5.4938-2.3793-8.1176-8.0784-9.045
		c-8.9155-1.451-17.8831-2.2366-26.8341-2.424c-23.0449-0.4824-44.1428-7.8535-64.584-17.514
		c-29.4417-13.9143-56.3911-31.4813-78.783-55.4618c-4.1007-4.3917-7.886-9.042-11.1208-14.1118
		c-0.7416-1.1623-2.5529-2.399-1.2384-3.8598c1.2594-1.3995,2.8164,0.1667,4.0865,0.6853
		c18.2343,7.4451,35.3568,17.0841,52.4943,26.697c19.3333,10.8448,38.8239,21.2963,60.645,26.5148
		c25.9818,6.2136,51.8427,4.8046,78.2913-0.5068c-3.7894-5.406-8.5638-8.9082-13.5635-12.1102
		c-13.833-8.8594-29.4603-12.9852-45.1655-16.8102c-22.4565-5.4693-45.3439-9.3453-66.7721-18.5386
		c-22.8265-9.7932-44.2152-21.7727-61.6212-39.9231c-4.7561-4.9594-8.915-10.3455-11.9773-16.522
		c-0.5553-1.1199-1.8599-2.3912-0.6682-3.5839c1.2235-1.2245,2.4932,0.1711,3.5852,0.7216
		c14.1494,7.1317,27.475,15.698,40.8937,24.055c25.4524,15.8512,53.3198,23.7561,82.8767,26.8054
		c17.1892,1.7734,34.4003,3.4416,51.7411,5.9033c-10.0618-7.2544-20.1826-14.4284-30.1737-21.7788
		c-26.4972-19.4938-51.8193-40.3159-73.0284-65.6852c-12.0465-14.4095-22.1815-29.9738-28.2369-47.927
		c-1.3409-3.9758-1.3428-3.9752-0.9703-7.3567c2.7802,1.1397,4.7656,3.1442,6.5995,5.23
		c7.6991,8.7564,15.2151,17.6754,22.9889,26.3641c29.7737,33.2778,64.7291,59.238,106.708,75.2214
		c12.4445,4.7382,24.8533,9.572,37.3301,14.2231c2.9624,1.1044,4.4202,2.6935,4.955,5.9929
		c2.5055,15.4542,5.678,30.7497,11.7285,45.3186c5.0841,12.2423,13.2689,20.4864,26.8499,22.6818
		c10.7323,1.7349,20.0006,6.238,26.3619,15.5068c0.7032,1.0246,2.1832,1.9784,1.4254,3.4308
		c-0.7559,1.4484-2.3895,0.8358-3.6467,0.8395c-9.8251,0.0285-19.6504,0.0313-29.4752-0.0283
		c-9.271-0.0563-17.9778-2.8431-26.9445-6.0456c3.0869,4.18,7.3964,6.7169,14.2266,8.1659
		c11.1067,2.3562,22.4937,2.3963,33.7111,3.8731c6.5973,0.8686,13.2449,1.3654,19.7258,3.0194
		c2.3113,0.5899,4.7643,1.2381,6.0139,3.2584c5.2681,8.5166,14.349,10.9546,22.6943,14.5215
		c4.5195,1.9318,9.2272,3.4234,15.1271,5.5805c-6.5886,2.8903-12.223,3.2543-17.7205,4.1136
		c-11.556,1.8062-22.6255,0.7242-32.5767-6.0625c-12.8585-8.7696-27.7689-11.7496-42.5092-15.2538
		c-6.9708-1.6572-13.8221-3.7188-20.3613-6.7013c-6.1628-2.8109-9.8256-7.0549-9.1326-14.3994
		c0.5845-6.1959-1.415-11.7998-5.2444-16.7767c-5.1958,5.8567-5.8378,17.266-1.6283,25.262
		c3.5897,6.8193,9.4956,11.0998,16.054,14.5154c4.413,2.2985,9.0167,4.377,13.7466,5.8947
		c17.7397,5.6922,35.5229,11.259,53.3733,16.5935c16.4465,4.9149,32.8618,5.1191,48.8745-1.8789
		c30.0765-13.1443,35.1185-48.8706,9.975-69.9843c-8.1389-6.8345-17.6113-11.319-27.0914-15.8234
		c-10.7065-5.0872-21.1945-10.5153-29.8422-18.8685c-2.1379-2.0651-5.5122-4.5073-4.295-7.1199
		c1.0746-2.3063,4.8792-0.1996,7.3456,0.2782c29.2134,5.6589,57.0007,14.9278,81.0952,33.1051
		c12.5002,9.4304,21.7032,22.0233,31.7935,33.7563c3.9092,4.5457,7.9937,8.9429,11.8337,13.5451
		c9.2651,11.1042,21.3746,15.1558,35.4561,15.0574c18.5859-0.1299,36.7295-3.9673,55.0758-6.0977
		c11.431-1.3274,22.8452-2.2174,34.3627-0.7101c19.6775,2.5752,32.5063,13.5599,39.2365,31.8416
		c5.0806,13.8007,5.8627,28.2914,5.8179,42.8438c-0.0114,3.6882-1.4366,3.9638-4.1716,1.8914
		c-3.4502-2.6143-7.1927-4.8614-10.5204-7.6157c-11.2795-9.3369-24.0059-10.6237-37.6781-7.1942
		c-3.0674,0.7694-6.199,1.3346-9.2013,2.3029c-12.7511,4.1124-24.5757,2.4366-35.7032-5.0772
		c-9.2932-6.2753-19.5353-9.1827-30.8094-7.655c-14.1346,1.9154-27.6846,5.7083-40.3286,12.4836
		c-9.5247,5.1038-18.8336,10.6744-29.7729,12.5229c-15.9297,2.6917-31.5359,0.3071-47.1104-2.6729
		c-6.0154-1.151-11.9662-2.6399-18.8961-4.1867c7.5648,11.9725,16.9175,20.2339,30.068,23.7599
		c12.7687,3.4237,25.4733,1.3345,38.1785-0.4738c13.6792-1.9469,27.2931-4.4396,41.1749-4.6232
		c9.353-0.1237,17.7139,2.5691,25.0353,8.4219c0.5201,0.4158,1.1088,0.7551,1.589,1.2106
		c13.9235,13.2104,30.2272,16.477,48.6021,12.067c5.9717-1.4332,12.1299-1.8667,18.36-1.0255
		c17.7701,2.3994,29.016,19.1153,24.0674,36.5139c-3.9246,13.7983-13.4502,22.5905-26.3652,28.1595
		c-3.2057,1.3824-4.167,0.0562-4.6602-2.792c-0.7947-4.5894-1.9198-9.1292-2.5356-13.7394
		c-0.4314-3.2294-1.8904-4.0896-4.9675-3.7324c-5.8081,0.6743-11.64,1.4666-17.136,3.3262
		c-18.6799,6.3203-37.7184,7.373-56.6425,2.5553c-39.7153-10.1107-78.6038-5.7129-117.4146,4.7245
		c-11.2498,3.0254-22.7427,4.9874-34.4739,5.3988c-19.7957,0.6941-36.481-6.1366-50.3925-20.0883
		c-4.9421-4.9564-9.8197-9.9861-14.936-14.7578c-14.0292-13.0839-30.7067-19.4389-49.8094-17.354
		c-26.3741,2.8786-40.0181,22.3867-34.7637,48.4456c4.4343,21.9927,16.6655,39.714,30.9218,56.2678
		c5.6074,6.5112,11.6992,12.6053,17.1918,19.4586c-21.5555-4.0321-39.1849-14.9716-53.7517-31.0632
		c-14.7395-16.2826-22.2322-35.6272-22.9004-58.4105c-4.4685,3.8314-8.6592,6.5625-9.5157,12.2683
		c-0.7021,4.6771-3.2157,8.7239-5.6631,12.6991c-6.9784,11.3344-11.1703,23.3924-10.0487,36.9388
		c0.1486,1.7931,0.2986,3.9359-0.5017,5.3961c-3.1959,5.8307-1.4957,11.5804-0.5157,17.4824
		c3.9807,23.9725,13.0389,45.6728,28.2303,64.7581c3.9395,4.9492,7.908,9.9521,11.1582,15.3544
		c4.3292,7.1949,10.8553,11.098,18.3457,13.7232c4.5853,1.6071,9.0317,3.4612,13.1495,5.9656
		c20.7017,12.5909,43.6753,19.548,66.436,27.0682c13.5914,4.4905,26.8242,10.0902,40.3428,14.6138
		c9.1066,3.0472,19.1454,5.7357,29.2008,4.2639c10.7378-1.5717,16.3705,4.3976,20.5468,12.8658
		c3.5662,7.2311,8.1493,13.1292,15.2743,17.644c31.6155,20.0334,56.9512,46.9672,80.8545,75.3487
		c9.4519,11.2227,18.285,22.9278,25.8602,35.5232c2.5791,4.2884,6.9691,6.2206,11.0197,8.2742
		c6.4869,3.2888,10.3406,7.6353,9.1162,15.2737c-0.937,5.8458,1.3845,10.3008,4.9349,14.9365
		c18.468,24.1134,30.0414,51.7411,39.5513,80.2841c11.8292,35.5049,19.5654,71.9301,23.5239,109.1506
		c0.3336,3.1376,1.473,6.0413,2.3395,9.04c2.7601,9.5515,3.2332,19.547-0.1675,28.9045
		c-1.8616,5.1228-2.7821,10.1432-3.3947,15.3969c-7.3672,63.1729-27.9139,121.1356-68.0234,171.2875
		c-8.5686,10.7137-18.5688,19.995-29.5905,28.2112c-6.1068,4.5524-11.4423,10.2529-16.5424,15.6791
		c-13.0857,13.9218-29.0634,23.2067-45.3054,32.3989c-15.2146,8.6108-30.4089,17.2579-45.5787,25.9473
		c-4.4449,2.546-9.6919,17.8281-7.9272,22.6273c0.6699,1.8215,2.4753,2.1165,3.8845,2.8492
		c14.9434,7.77,29.7025,15.7919,42.5043,26.9647c12.2188,10.6639,21.5344,23.5604,29.491,37.5443
		c0.387,0.6801,0.5509,1.4869,0.7761,2.116c-19.3136,4.8259-38.3424,5.7217-57.2894-1.2445
		c5.7948,9.1051,14.2578,13.0914,24.3319,13.8843c14.551,1.1453,28.406-2.7551,42.2781-6.3297
		c4.6759-1.2048,9.3696-2.3885,13.9476-3.9061c2.6464-0.8774,3.5498-0.1559,4.0225,2.4238
		c1.23,6.7115,2.5076,13.4224,4.0747,20.0607c0.8401,3.5583-0.2355,4.3635-3.614,3.8669
		c-20.2933-2.9829-40.1716,0.9802-60.1165,3.7548c-0.6222,0.0865-1.2228,0.33-3.0173,0.8303
		c15.0897,1.5017,28.9471,2.9534,42.8231,4.1989c2.6755,0.2404,4.6392,1.0259,6.4346,3.0895
		c7.2124,8.2908,13.7617,17.171,21.8077,24.7251c2.0414,1.9166,2.2206,3.5601-0.5818,4.9292
		c-2.8384,1.3866-5.5712,3.0132-8.4769,4.2327c-3.4777,1.4591-6.915,1.238-9.7039-1.615c-3.4531-3.5327-7.4163-3.504-11.4813-1.619
		c-3.6141,1.6759-7.0154,3.8051-10.5708,5.6157c-2.5175,1.2822-2.2023,2.5684-0.6589,4.5601
		c4.4794,5.7806,9.8584,10.8516,13.3994,17.3826c2.686,4.9541,2.1577,6.0233-3.6125,6.9081
		c-18.4166,2.8241-35.7867-1.0084-52.5979-8.2325c-14.8956-6.4011-28.4863-15.1938-42.3763-23.4341
		c-8.9912-5.3341-17.9781-10.6906-29.2219-15.0742c1.6677,2.5144,2.5125,3.9456,3.5073,5.2634
		c7.2557,9.6096,15.9204,17.9288,24.3038,26.5084c5.0264,5.1443,5.0641,4.34-0.9777,7.4177
		c-1.1864,0.6045-2.3419,1.2693-3.5194,1.8916c-2.1569,1.14-3.1508,2.4392-2.1149,5.1884c1.474,3.911-0.4503,7.4564-2.1964,10.9167
		c-1.3206,2.6166-2.7137,0.9099-3.9757,0.0988c-7.2872-4.6841-14.533-9.433-21.8005-14.1477
		c-23.6229-15.3252-47.4199-30.4233-68.4841-49.2834c-6.3252-5.6637-12.1906-11.8381-18.3513-17.6891
		c-7.6222-7.2391-9.9463-16.6151-11.2402-26.552c-1.2681-9.7367-3.8413-19.4109-4.0105-29.1442
		c-0.1056-6.0778-1.9823-10.4939-4.7971-15.434c-2.6248-4.6071-6.2366-4.655-9.5289-2.9061
		c-4.6866,2.4893-9.4313,2.9541-14.4463,2.9867c-4.3088,0.028-8.579-0.2009-12.8219,1.3303
		c-3.0814,1.1118-6.1641-1.1171-9.1787-1.3193c-4.8757-0.3269-9.8147-1.1276-14.1383-2.6693
		c-17.5999-6.2754-36.1675-6.827-54.2336-10.2379c-38.717-7.3102-76.0193-19.6357-113.3298-31.9371
		c-12.0105-3.9601-24.0258-7.9075-36.0776-11.7386c-2.3127-0.7352-4.1659-2.0106-5.8446-3.5978
		c-5.5438-5.2413-12.96-7.1997-19.3053-11.0872c-44.0518-26.9886-77.8973-63.7285-103.8116-108.0251
		c-4.9802-8.5128-8.4367-17.9077-13.4127-26.4866c-0.7529-1.298-1.6207-3.3455-2.8844-3.1776
		c-3.0919,0.411-3.5573-2.0186-4.6438-3.5963c-15.7112-22.8123-28.7944-47.196-42.3542-71.2876
		c-6.6154-11.7534-13.4416-23.4108-20.4614-34.8889c-4.3934-7.1836-11.886-12.4019-17.4557-18.9543
		c-6.5164-7.6661-14.3649-14.4639-17.5883-24.5184c-0.4049-1.2629-1.2492-2.6316-1.0438-3.8027
		c1.1093-6.3258-2.6912-10.325-6.4861-14.3142c-8.9572-9.4163-17.7954-18.9589-27.0823-28.0408
		c-2.9934-2.9272-7.4783-4.2622-10.8655-6.8661c-12.6071-9.6913-27.2795-7.4928-41.4623-7.1415
		c-11.8992,0.2949-21.9954,6.0579-31.3767,12.9993c-2.8122,2.0807-5.5635,4.2438-8.3613,6.3441
		c-1.8804,1.4117-3.723,3.9803-5.9183,0.3485c-0.0809-0.1338-0.241-0.2765-0.3864-0.306c-2.1532-0.4379-3.3923,1.6158-3.6577,2.64
		c-1.062,4.0992-9.2454,3.5302-6.538,9.3698c1.7806,3.8406,1.3504,6.5968-0.5441,10.1071
		c-10.3597,19.1952-21.7463,37.8419-31.0945,57.5751c-3.4766,7.3387-6.5414,14.8746-9.7028,22.3591
		c-0.6359,1.5054-1.3075,3.2178-1.1945,4.7791c0.4819,6.6622-2.7845,11.5382-7.3112,15.7128
		c-3.7619,3.4692-6.256,7.597-8.3782,12.2042c-11.368,24.6805-23.7408,48.8293-39.0489,71.3557
		c-1.8464,2.7169-2.1388,5.9102-3.2831,8.8365c-4.0851,10.4473-11.5707,18.2036-19.8535,25.2607
		c-3.0653,2.6117-6.0048,5.1877-8.1784,8.6021c-0.7993,1.2556-1.6899,2.5826-2.8547,3.4556
		c-8.957,6.7128-15.5401,15.7347-23.2767,23.6307c-2.6755,2.7305-3.9993,5.2336-3.8294,9.4625
		c0.744,18.5165-5.9148,34.8892-16.05,50.0205c-8.6125,12.8582-19.3008,23.7842-31.5301,33.2023
		c-2.2507,1.7335-3.7308,3.3794-3.6924,6.4911c0.0521,4.2053-2.2994,7.6315-6.0921,8.9658
		c-3.9371,1.3849-5.7316,4.1466-7.407,7.4489c-1.4283,2.8149-2.4221,6.303-4.6984,8.1486
		c-6.2844,5.095-8.2078,11.8936-9.9853,19.2817c-2.4583,10.2175-7.8623,18.9839-15.5029,26.3513
		c-17.2716,16.6539-34.4907,33.3629-51.6336,50.149c-1.9957,1.9542-3.3209,2.5122-4.8538-0.176
		c-0.0819-0.1437-0.1937-0.2712-0.2977-0.4014c-10.6392-13.3-10.6322-13.2949-0.4933-27.1008
		c1.8253-2.4855,3.5666-5.0326,5.3467-7.5513C433.6563,1502.2114,433.4199,1501.9414,433.1834,1501.6714z"/>
	<path d="M1101.7814,948.871c-2.359-3.7668-4.6003-7.2171-6.7095-10.7464c-2.6-4.3505-6.0027-7.9898-9.8367-11.2245
		c-3.0244-2.5518-6.501-4.2946-10.5731-3.2559c-8.5956,2.1924-15.6747-0.8734-22.278-5.9677
		c-10.3561-7.9893-19.1654-17.5528-27.4829-27.5396c-13.4267-16.1214-27.4234-31.698-41.5189-47.2386
		c-12.9796-14.3102-27.7028-26.3157-41.7158-39.2985c-8.825-8.1761-19.9493-11.5491-29.8749-17.3593
		c-7.1687-4.1966-15.5529-6.0975-20.9197-13.6293c-2.8842-4.0477-8.6906-5.0589-13.8724-5.1721
		c-1.2272-0.0268-2.2556-0.2053-3.2546-0.6644c-30.0752-13.8211-61.1732-14.1621-92.9041-7.3289
		c-24.8615,5.3538-48.2029,15.2323-72.0265,23.6921c-3.0902,1.0974-7.4368,4.0179-9.1717,2.2325
		c-2.2595-2.3253,0.8624-6.3846,1.9552-9.5618c6.2756-18.2447,17.6733-32.2595,34.8018-41.4362
		c2.3467-1.2573,4.6208-2.653,6.9032-4.0267c19.3179-11.6262,25.4902-26.1801,20.4403-48.1635
		c-5.131-22.3362-15.7876-30.4814-42.1365-32.3035c-5.5845-0.3862-11.1553-0.9712-16.7323-1.4647
		c-0.0414-0.4313-0.0828-0.8625-0.1242-1.2938c4.5259-0.9303,9.0331-1.9669,13.5811-2.7726
		c19.4412-3.4438,38.9304-5.4576,58.5817-1.6453c22.2917,4.3245,37.3636,17.1517,45.5497,38.3098
		c5.7454,14.8497,7.7157,30.6297,11.7139,45.9062c1.1351,4.337,2.7233,8.5551,4.091,12.8318
		c0.8677,2.7131,2.1833,3.5447,5.162,2.2883c9.7637-4.1186,15.0705-12.3112,14.1893-22.8859
		c-1.1833-14.1996-8.1144-25.9113-16.5229-36.849c-9.945-12.9366-22.7453-22.871-35.426-32.9016
		c-11.3767-8.9991-22.6827-18.0837-31.7932-29.5155c-14.8442-18.6265-22.207-39.9589-22.8798-63.6846
		c-0.2599-9.1656,1.5338-17.9763,5.6662-26.1003c4.5759-8.996,9.7255-17.7003,14.6212-26.5242
		c5.226,2.9648,6.345,5.9741,4.2114,11.7151c-5.3921,14.5085-7.5364,29.6814-4.9291,45.184
		c3.1671,18.8308,14.2702,32.6369,28.4759,44.4179c10.0155,8.306,20.9661,15.3421,31.3903,23.0923
		c4.8093,3.5756,9.5362,7.277,14.1311,11.1236c24.5916,20.5868,31.5617,46.7404,24.1323,77.3191
		c-1.4517,5.9748-3.2782,11.8585-5.0135,18.077c3.6326,0.5483,7.049-0.8361,10.5392-1.3155
		c9.9286-1.3636,19.2515-1.0386,26.6733,7.2381c2.76,3.078,15.219,1.8422,18.7899-1.5753c2.7684-2.6494,5.4672-5.6339,6.2747-9.4451
		c1.1799-5.5692,4.4362-9.9272,7.2364-14.6189c1.2747-2.1356,2.7028-3.5292,5.1439-2.8514
		c2.2831,0.6339,3.6479,2.4925,3.6315,4.8572c-0.0543,7.8191,0.6097,15.6527-0.3822,23.4568
		c-0.1885,1.4826-0.3447,2.9697-0.4968,4.4566c-0.9277,9.0709,0.3772,15.9999,10.0258,21.201
		c12.0883,6.5164,19.1183,18.7822,27.1568,29.7931c6.7886,9.2988,12.6736,19.1157,19.0945,28.6113
		c0.646,0.9553,1.4375,1.894,2.3607,2.5674c11.6935,8.5298,18.6612,9.7565,22.5162-5.868
		c1.5458-6.2654,1.6669-12.5756,0.3428-18.8231c-3.9635-18.7009-13.0923-34.3507-27.8132-46.7229
		c-9.2757-7.7957-18.8302-15.2098-28.5912-22.844c12.0918,2.4069,24.1835,4.8138,37.2797,7.4207
		c-2.5074-5.9582-4.6784-11.0737-6.8153-16.2034c-4.7657-11.4404-8.9481-23.0129-7.5905-35.7493
		c1.1804-11.0746,6.9284-19.3671,16.098-26.7733c-0.7493,5.4666-1.4399,9.8715-1.9429,14.2978
		c-1.3773,12.1201,2.0427,22.6376,10.3327,31.6932c12.0961,13.2131,22.5906,27.6473,30.4011,43.7817
		c18.5372,38.2933,22.0475,78.0596,10.8213,119.1337c-1.5776,5.7727-2.9014,11.6357-3.9553,17.5262
		c-1.8693,10.4472,1.7712,15.3619,12.3065,16.9654c5.5933,0.8514,11.304,1.1123,16.809,2.3301
		C1099.0692,911.2809,1110.7264,925.2725,1101.7814,948.871z"/>
	<path d="M1069.3594,553.5165c-7.4305-2.7391-11.7239-7.8765-15.7991-12.9837c-7.2617-9.1007-7.1029-9.245-12.4663,1.1589
		c-2.6713,5.1814-5.5516,10.2764-7.8768,15.6111c-12.8137,29.3992-61.2495,40.9728-87.9254,16.1819
		c-4.0095-3.7261-7.9162-7.5139-11.9803-12.7947c8.3578,1.3404,15.6132,2.6625,22.9152,3.6349
		c9.0943,1.2111,18.2122,1.9081,27.3968,0.5844c12.5928-1.8149,21.5657-8.2483,26.4961-20.0923
		c4.861-11.6777,6.3589-24.101,8.0336-36.4762c1.4961-11.0564,2.4247-22.2092,4.3922-33.178
		c4.4296-24.6942,17.7236-43.9106,37.9074-58.4374c10.4077-7.4907,21.222-14.416,31.6326-21.9031
		c6.7035-4.8211,6.6196-5.2112-0.0658-9.748c-5.9232-4.0194-12.1116-7.6463-18.1464-11.5034
		c-17.674-11.2963-23.8925-29.0968-17.0114-50.0019c1.7518,2.4568,3.3961,4.4844,4.7416,6.694
		c10.1506,16.6697,25.4249,24.3548,44.4614,25.4149c7.3204,0.4077,14.6238,0.561,21.9319-0.6504
		c13.8046-2.2883,24.9564-8.8631,33.5034-19.9218c4.6089-5.9634,8.1974-12.5372,11.6414-19.2048
		c2.7518-5.3279,5.5559-10.6287,8.3212-15.9498c9.1364-17.5809,23.9482-24.6196,43.2666-23.3648
		c12.7449,0.8279,24.4849,4.4533,34.9869,11.9343c3.4443,2.4535,3.1342,3.6236-0.5021,5.5545
		c-22.2554,11.818-43.5862,25.0869-63.4391,40.6874c-26.3848,20.7333-47.2056,45.8815-61.6791,76.2531
		c-4.3672,9.164-9.2937,18.0613-13.9631,27.0812c-4.2329,8.1767-10.5751,13.9804-19.158,17.4294
		c-4.6404,1.8647-9.0018,4.3226-13.1191,7.1961c-20.2581,14.1378-28.8186,33.3311-25.2705,57.8946
		C1064.1342,531.3387,1066.5404,541.8735,1069.3594,553.5165z"/>
	<path d="M303.3773,1121.8425c21.729-11.1675,43.8965-16.5299,67.6141-7.9249c0.1772-1.5579-0.9826-1.6353-1.6292-2.1201
		c-0.6632-0.4973-1.4114-0.8806-2.12-1.318c-13.798-8.5164-26.9405-17.8782-37.8699-29.9972
		c-13.7398-15.2352-21.955-32.4602-18.9206-54.1035c1.8264,2.5811,1.58,5.3435,2.3776,7.7725
		c8.3017,25.2831,25.5094,42.0353,49.8623,51.7792c10.0679,4.0283,20.8125,5.8726,31.2119,8.8435
		c5.6079,1.6019,11.1116,3.4434,16.4091,5.939c12.3935,5.8386,19.2153,16.0868,22.8202,28.7865
		c2.8904,10.1824-0.4607,19.0363-6.6006,27.0824c-3.7362,4.8961-7.7786,9.5654-11.3819,14.5543
		c-3.4009,4.7087-3.9151,9.7861-0.6977,14.9574c2.8355,4.5575,5.9371,5.5992,10.4243,2.6694
		c4.1689-2.722,8.0065-5.9625,11.9173-9.0663c11.052-8.771,23.2405-14.7754,37.4841-16.3394
		c4.2528-0.4669,5.3116,0.4716,3.3109,4.2775c-1.0033,1.9084-1.8274,4.0077-3.2138,5.6019
		c-6.3279,7.2764-9.4403,15.8223-11.2774,25.1761c-3.2534,16.5653-3.2628,17.0802-18.6864,23.0482
		c-55.1621,21.3452-109.4796,19.2135-162.4013-7.547c-14.3076-7.2349-26.13-17.7115-34.8991-31.4137
		c-2.2772-3.5582-1.8611-4.7939,2.3914-5.6168c17.3696-3.361,33.4046-1.3347,47.658,10.1278
		c9.2517,7.4402,19.993,9.9474,31.8551,9.0968c6.3184-0.453,10.8502-2.6393,14.6317-7.7665
		c8.0091-10.8591,12.2985-22.6263,11.6026-36.2938c-0.8506-16.7058-12.5099-25.1819-24.148-27.0724
		C321.933,1123.4861,312.6242,1122.855,303.3773,1121.8425z"/>
	<path d="M493.0212,1180.5007c1.2614-9.447,2.2474-18.5449,2.6688-27.6923c0.431-9.3561,0.0958-18.6388-2.293-27.7717
		c-2.4742-9.4594-7.971-16.3447-16.9449-20.3624c-3.3436-1.4969-6.6371-3.1287-10.0548-4.4335
		c-14.1083-5.3859-22.8363-15.6761-27.4181-29.7887c-1.6449-5.0665-3.0923-10.1986-4.799-15.2435
		c-6.2066-18.3472-23.3024-26.8629-41.7818-20.8695c-5.7546,1.8665-10.9304,4.8857-16.006,8.1028
		c-3.6346,2.3037-7.2896,4.5754-11.1528,6.9977c0.2285-13.559,16.8267-37.679,30.6967-44.6188
		c17.8339-8.9232,36.3408-5.7078,54.7512-2.3331c0.6021-1.8239-0.6684-2.6847-1.3624-3.689
		c-5.4112-7.8298-11.3396-15.2253-18.2414-21.8228c-16.6624-15.9279-36.7733-21.3589-59.272-19.6532
		c-12.3388,0.9354-24.3855,3.4443-36.3183,6.6098c-1.5628,0.4146-3.071,1.3914-4.9196,0.7453
		c-0.0443-2.2502,1.7241-3.475,2.9145-4.9113c24.5224-29.5863,69.5157-31.7752,96.8386-4.7463
		c9.1594,9.0608,16.7702,19.3998,24.4417,29.6879c6.1781,8.2854,12.3903,16.5453,19.8639,23.7454
		c7.5534,7.2771,16.1009,12.8394,26.3267,15.711c3.7937,1.0653,5.3846,1.1466,4.59-3.7996
		c-1.2881-8.0187-2.8729-16.1025-1.6503-24.3301c1.4366-9.6677,9.4135-16.7327,19.1733-17.2495
		c2.9602-0.1567,2.4182,1.3832,2.0242,3.0604c-1.6013,6.817-3.0994,13.6362-3.0241,20.7089
		c0.0436,4.1033,0.6971,8.1213,3.0853,11.4125c7.6218,10.5046,8.8428,22.0703,6.0516,34.3
		c-6.4924,28.4459-8.9366,57.5936-15.0047,86.1039c-3.4132,16.0364-10.418,30.5193-20.1292,43.6998
		C495.4286,1178.948,495.0538,1180.1938,493.0212,1180.5007z"/>
	<path d="M1144.9319,956.1732c8.0961-2.2131,16.1921-4.4263,25.4792-6.9651c-3.8438-2.1666-6.6783-3.7769-9.5247-5.3665
		c-6.9808-3.8983-13.913-7.8674-20.5278-12.382c-12.0625-8.2325-18.851-19.3935-19.7054-34.136
		c-0.7384-12.743,1.1976-25.1663,3.5842-38.9379c4.1208,8.0265,6.9175,15.178,8.6664,22.5319
		c3.1356,13.1848,10.8574,22.4329,22.0015,29.6242c10.2302,6.6015,20.4979,13.1264,31.4202,18.4796
		c26.7769,13.1236,37.2172,36.2892,39.8245,64.2449c1.4055,15.0708-1.8318,29.8784-3.3813,44.763
		c-1.7565,16.8708,4.3489,29.5364,19.0012,38.1598c7.8026,4.592,16.157,7.8187,24.6559,10.8014
		c2.7289,0.9579,3.8177,0.3551,4.4031-2.4187c1.2709-6.0228,2.9194-11.9677,4.1168-18.0033c0.4949-2.494,1.5394-3.7786,4.0315-4.241
		c3.1058-0.5763,6.1427-1.5139,9.2379-2.1583c10.3285-2.1498,18.2668,1.3417,24.0375,10.14
		c1.5132,2.3069,0.2137,2.7949-1.3616,3.6019c-4.8939,2.5067-9.7993,5.0156-14.0394,8.5773
		c-6.1421,5.1592-6.438,9.316-0.9365,15.1649c2.1602,2.2965,4.6323,4.3091,7.0367,6.3639c2.3646,2.0208,4.8235,3.9314,8.3828,6.8158
		c-12.222,0.1036-22.8434-1.2479-33.3368-3.4855c-47.1145-10.0466-88.1392-32.6063-125.7297-61.931
		c-22.5747-17.6105-42.9772-37.41-58.3793-61.8425c-1.7443-2.7669-5.4264-6.2542-4.0723-8.5518
		c1.6274-2.761,6.366-1.0655,9.7162-0.8696c14.3931,0.8419,27.6843,5.4578,40.3063,12.2237
		c4.8429,2.5959,9.6813,5.2026,14.5729,7.7045c3.564,1.8229,7.2332,3.5038,11.2791,3.8665
		c13.2919,1.1912,17.3329-3.8629,14.7609-17.3498c-0.9785-5.1309-4.5029-8.8144-8.5804-11.9138
		c-6.3428-4.8212-13.6543-7.5542-21.1776-9.8313c-1.8783-0.5685-3.7577-1.1335-5.6366-1.7001
		C1145.0153,956.8259,1144.9736,956.4996,1144.9319,956.1732z"/>
	<path d="M364.0645,419.7971c11.1432,1.8615,21.0893,5.404,30.5413,10.363c19.7766,10.3757,34.2481,26.1739,45.6976,45.0164
		c13.3339,21.9438,21.7005,46.0091,29.9323,70.1328c4.1923,12.2855,8.8008,24.4271,13.0984,36.6684
		c9.607,27.3642,28.7112,41.89,57.2063,46.0738c22.714,3.335,45.5797,5.8865,68.0492,10.818
		c12.0612,2.6472,23.8624,6.0831,35.0717,11.3718c27.0004,12.739,41.7764,34.1983,45.3921,63.6034
		c2.033,16.5333,0.5299,32.9216-2.2305,49.2436c-0.1351,0.7985-0.5019,1.5578-0.8037,2.4644
		c-1.9124-1.3986-2.0974-3.5057-2.813-5.2719c-11.9171-29.41-28.5837-55.2688-54.9756-73.9084
		c-19.759-13.9551-42.1846-21.8013-65.1281-28.4622c-20.9343-6.0775-41.9435-11.8061-62.3824-19.5862
		c-26.5797-10.1174-44.2719-28.7147-55.5444-54.2693c-9.7929-22.2003-15.3776-45.7167-21.9558-68.927
		c-2.9051-10.2504-6.0215-20.4266-9.7219-30.4266c-8.7605-23.6739-22.0399-43.9803-43.0589-58.6628
		C368.2076,424.4796,365.6505,423.0746,364.0645,419.7971z"/>
	<path d="M519.7144,839.4435c-1.7438-8.0855-3.7546-16.1241-5.1861-24.2645c-6.7531-38.4034-28.8973-64.8932-62.8906-82.6354
		c-21.8885-11.4243-44.7734-20.5928-67.2294-30.7339c-12.458-5.6259-24.5714-11.8736-36.2898-18.9548
		c-33.57-20.2856-45.4342-50.5425-41.503-88.431c2.3872-23.0079,9.2445-44.963,15.0207-67.1904
		c4.0019-15.3999,6.9028-30.9948,3.5007-46.9096c-4.0419-18.9081-15.6044-32.797-30.6858-44.0686
		c-5.2493-3.9232-10.8347-7.3967-15.8497-11.7203c27.5794,3.9001,53.2209,11.7255,70.4608,35.48
		c12.7621,17.5847,14.1117,37.6143,10.5827,58.3362c-3.0615,17.9771-9.4375,35.0105-14.9402,52.2937
		c-2.5275,7.9384-4.6726,15.9603-5.8402,24.2535c-2.278,16.1793,2.0693,30.3051,12.5113,42.7186
		c7.3686,8.7599,16.1898,15.8895,25.6856,22.095c22.7254,14.8514,45.7945,29.1796,68.4325,44.1609
		c18.1203,11.9915,34.7823,25.7961,48.8221,42.5581C517.1305,773.6691,526.6021,806.9112,519.7144,839.4435z"/>
	<path d="M183.6537,950.9016c24.3024,4.9416,39.9492,24.34,40.412,49.0174c0.2463,13.1324-2.4947,25.8153-6.0494,38.35
		c-0.6844,2.4133-1.3716,3.9344,2.442,3.714c29.6505-1.7134,54.3171-32.606,48.8074-61.3475
		c-1.4833-7.7378-5.4267-14.2622-10.2127-20.3372c-2.9753-3.7766-6.0643-7.4637-9.2788-11.4075
		c17.7261,2.155,37.1344,32.3789,38.3261,59.1218c1.7423,39.1012-21.3065,63.5938-71.4231,74.5573
		c16.5409,7.6173,21.2503,20.5479,19.7994,37.7936c-3.2108-3.5841-5.8332-6.2848-8.1973-9.1953
		c-5.7796-7.1154-13.3221-9.631-22.201-8.8104c-5.1409,0.4749-10.2853,0.9443-15.4056,1.594
		c-2.3139,0.2937-3.633-0.1667-4.5095-2.5897c-5.3487-14.7866-13.1532-28.394-20.7352-42.0801
		c-17.8538-32.2272-29.5176-66.9637-41.6423-101.5282c-0.9686-2.7615-0.0819-3.4565,2.4628-3.8767
		c16.9354-2.7972,31.3729,1.3696,42.5407,14.9362c3.8111,4.6296,7.5033,9.3665,11.4973,13.833
		c3.5657,3.9875,8.325,7.6843,13.4958,5.5293c4.3089-1.7958,3.831-7.6713,4.2933-12.0198
		c0.7525-7.0792-1.9971-13.0584-6.8476-18.091C189.0542,955.8091,186.6788,953.7482,183.6537,950.9016z"/>
	<path d="M136.8392,855.4528c-2.7487,10.5175-1.5594,20.4612-5.1454,29.8403c-2.0822-1.8293-2.4839-4.4022-3.1375-6.6415
		c-3.0393-10.413-9.9206-16.0289-20.5066-17.9182c-8.3254-1.4858-8.1781-1.7962-8.8236-10.3884
		c-1.7596-23.4209-3.5793-46.8375-5.4332-70.2511c-0.5457-6.8915,0.1076-13.6675,1.9039-20.2943
		c2.5738-9.4951,7.2703-11.8979,16.3529-8.3142c5.1046,2.0141,9.998,4.5572,15.039,6.7408
		c5.8641,2.5401,11.9093,4.1653,18.4269,3.6772c3.5707-0.2674,5.6188-1.6157,6.7258-5.2861
		c3.1515-10.4493,2.5296-20.7233-0.5129-31.0059c-1.7382-5.8746-3.5261-11.7345-5.3158-17.6812
		c1.9222-0.4696,2.6821,0.8535,3.6188,1.5905c8.1525,6.4147,15.625,13.5139,21.6471,22.0246
		c12.5433,17.7266,14.8496,36.6515,6.6323,56.8102c-6.4679,15.867-16.9489,28.9675-28.5731,41.2435
		c-2.9591,3.125-6.3836,5.8093-10.4821,9.4944c5.7934,2.027,10.383,2.3682,14.8444,2.6649
		c13.7276,0.9128,24.2184,7.0355,29.3843,19.7881c6.451,15.9254,18.49,21.836,34.6242,23.0985
		c18.1975,1.424,32.4762-4.1642,41.5815-20.5052c3.7249-6.6851,6.9911-13.6254,10.4757-20.4448
		c2.4052-4.707,4.683-9.4928,8.6568-14.5447c-0.2676,9.2989-2.1069,17.2234-5.093,24.8662
		c-9.0657,23.2033-25.9386,39.213-47.5704,50.5224c-12.9122,6.7507-26.5123,11.6574-41.2654,12.6279
		c-14.118,0.9286-24.004-5.1041-30.0035-17.8534c-4.0588-8.6251-6.3917-17.8583-9.7044-26.7435
		C143.1084,866.9984,141.1773,861.3472,136.8392,855.4528z"/>
	<path d="M1101.9152,599.4954c3.8324,6.1317,5.4614,12.4268,7.1295,18.6419c3.1479,11.73,6.1637,23.5012,8.9335,35.3257
		c4.7823,20.4163,13.7655,38.8271,25.9001,55.8123c5.9027,8.2623,12.0906,16.3356,16.826,25.381
		c1.7426,3.3286,2.0713,6.133-0.1486,9.7143c-4.525,7.3007-2.8623,15.5245-1.8431,23.3961
		c1.4485,11.188,7.0842,20.6782,13.179,29.901c6.3577,9.6208,12.14,19.504,14.7366,30.9359
		c2.9178,12.8467,2.6591,25.6857,0.4268,39.5917c-3.5823-7.2056-5.3311-13.9526-6.665-20.7539
		c-2.7717-14.1332-9.7748-25.6553-20.4297-35.1899c-8.5695-7.6684-17.2264-15.221-26.4359-22.1163
		c-1.9462-1.4571-3.9984-2.7721-6.8937-4.7672c1.1105,10.9535,1.7101,20.8253,0.6639,30.7834
		c-2.5466,24.2426-16.1573,40.8555-37.6832,45.3059c-1.2778,0.2642-2.559,0.6962-3.9791,0.1094
		c0.63-2.2559,2.5846-3.38,4.1162-4.8008c3.1736-2.9441,6.5835-5.6413,9.6674-8.6729
		c10.5326-10.3539,12.4182-20.7392,4.6707-33.2532c-12.833-20.7284-17.5354-43.2689-17.0948-67.2622
		c0.2736-14.9003,4.4462-28.8732,9.72-42.6208c3.8151-9.9451,7.5228-19.9238,10.515-30.1656c1.03-3.5255,0.2369-4.7225-3.411-4.9343
		c-7.3125-0.4246-14.6141-1.1105-21.903-1.8574c-10.672-1.0937-19.3445-10.1046-20.361-20.7542
		c-0.1836-1.923,0.8542-2.3435,2.1676-2.6664c3.2249-0.7929,6.4392-1.7576,9.7186-2.1727
		c6.7499-0.8543,11.2439-4.5441,14.3085-10.3845c2.7183-5.1801,4.8726-10.5742,6.5076-16.1874
		C1095.8873,610.2263,1097.9694,604.8197,1101.9152,599.4954z"/>
	<path d="M1286.4938,1010.2764c1.4268-4.6396,2.8698-9.032,4.1249-13.4775c2.3557-8.3441,0.8743-15.7218-5.3641-22.097
		c-7.6771-7.8456-13.5624-16.8171-16.449-27.5811c-3.1569-11.7722-1.2961-23.1079,2.6797-34.3015
		c0.5509-1.5508,1.0675-3.1141,1.5742-4.68c0.035-0.1083-0.1464-0.2865-0.3889-0.7239
		c-11.3405,15.6713-19.158,31.7814-10.7673,51.4743c3.3157,7.7818,6.1639,15.7627,9.6208,24.6737
		c-1.7758-1.1404-2.8176-1.7095-3.7491-2.4225c-22.8075-17.4546-29.6544-40.7475-25.1061-68.2978
		c1.9031-11.5273,6.0785-22.0867,12.4431-31.8508c4.9091-7.5313,9.8937-15.0252,13.3225-23.4106
		c2.709-6.6246,2.7397-6.5814-3.4243-10.5419c-8.111-5.2115-17.1185-8.0478-26.405-10.2531
		c-7.6083-1.8067-15.1267-3.999-22.7518-5.725c-3.8019-0.8607-3.8207-2.8179-2.6498-5.7536
		c0.7046-1.7665,1.6997-3.2242,3.2205-4.3386c8.798-6.4468,16.2223-14.3405,23.2638-22.5721
		c2.2876-2.6742,4.1249-2.9661,7.1982-1.4824c18.3475,8.8574,34.0426,21.4805,49.3934,34.5728
		c10.5193,8.9716,20.8269,18.1921,31.1952,27.3398c8.5051,7.5038,17.2271,14.7145,26.9843,20.5718
		c6.3615,3.8187,9.8081,9.7048,12.1147,16.5504c0.9017,2.6763-0.026,3.3962-2.3533,4.2001
		c-13.8799,4.794-27.5598,5.8676-41.252-0.853c-7.6964-3.7775-16.0431-5.4052-24.5693-6.2433
		c-3.2767-0.3221-5.053,0.5287-6.4689,3.7516c-6.3929,14.5532-7.2806,29.2882-2.0922,44.2984
		c2.8273,8.1793,6.2295,16.1651,8.9105,24.3887C1304.2977,982.5145,1299.4517,999.9816,1286.4938,1010.2764z"/>
	<path d="M1361.2821,1103.1842c2.7263-6.0272,6.4618-10.3145,9.8673-14.7998c3.7876-4.9885,6.5745-10.3579,7.7018-16.5825
		c1.4032-7.7479,0.2655-14.7797-4.5485-21.2782c-11.9309-16.1061-26.8771-26.7306-47.7283-26.6141
		c-13.412,0.0749-17.0574,3.9437-17.5432,17.4119c-0.1403,3.8905,1.1038,7.1366,3.3933,10.1732
		c1.4702,1.9502,3.5994,3.4386,4.421,5.9435c-12.7205,0.6753-24.2321-9.2847-25.782-22.1876
		c-2.4475-20.3759,12.8545-40.999,34.5453-46.3204c14.5603-3.572,28.4368-0.9467,41.761,5.3238
		c5.4205,2.5509,10.657,5.4901,16.0432,8.1176c3.4352,1.6758,6.9215,3.2941,10.5054,4.6099
		c15.2279,5.5911,21.782,0.5493,21.1351-15.5968c-0.53-13.2269-6.6134-21.8792-19.214-26.1304
		c-12.3518-4.1674-19.0947-12.8162-19.819-25.9545c-0.0352-0.6362,0.0773-1.2805,0.123-1.951
		c1.8419-0.1336,2.3031,1.392,2.9937,2.3468c5.6083,7.7541,13.2084,10.7538,22.6023,9.9776
		c5.474-0.4523,10.9749-0.5736,16.4624-0.8682c1.7743-0.0953,3.1759,0.1066,3.8938,2.168
		c5.5741,16.0026,12.6881,31.5287,14.395,48.6946c1.1263,11.3287-0.3363,22.3033-4.2537,32.9037
		c-12.1926,32.9943-34.0422,56.7396-67.1835,69.5271C1364.1533,1102.4458,1363.1936,1102.6396,1361.2821,1103.1842z"/>
	<path d="M359.5715,400.3904c15.9908-1.265,31.3976,1.9057,46.1907,7.8303c34.2912,13.7336,61.6012,36.5613,82.0806,66.9036
		c22.8589,33.8676,37.3732,71.2592,41.8539,112.1694c0.9824,8.9692,0.7638,17.9553-0.4309,26.924
		c-0.3672,2.7565-1.1165,3.3598-3.7953,2.1348c-14.8043-6.7698-24.9689-17.1456-28.4597-33.6694
		c-4.3342-20.5166-7.9906-41.1951-13.8186-61.3806c-2.4954-8.6429-5.3864-17.1436-8.5426-25.5675
		c-15.7267-41.9745-46.4902-68.4891-87.1473-84.7957C378.2674,407.2354,368.8857,403.8971,359.5715,400.3904z"/>
	<path d="M1440.0831,163.9987c17.9137-1.8626,37.0972,8.3137,44.4713,24.1621c3.7123,7.9786,6.384,16.4367,9.6616,24.6238
		c2.6268,6.5618,5.6832,12.9113,11.0925,18.1914c-0.3568-6.0683-0.7252-12.136-1.0669-18.2052
		c-0.3348-5.9423-0.6422-11.8862,0.1227-18.3228c1.6757,3.1006,3.6169,6.0888,4.9841,9.3199
		c9.2656,21.8972,25.9252,36.2605,46.8153,46.414c9.5804,4.6566,19.4329,8.7881,28.4438,14.5602
		c18.1162,11.6045,23.765,30.2761,15.1068,50.8007c-3.3259-3.7527-5.5596-8.0174-7.5197-12.3206
		c-5.5913-12.2758-15.0054-19.9318-27.4604-24.6448c-13.0834-4.9508-26.4109-8.0511-40.4479-7.8029
		c-3.665,0.0648-7.3356-0.0836-10.9978,0.0362c-12.2772,0.4019-21.0349-4.9526-26.6726-15.8149
		c-6.1877-11.9225-9.7618-24.7467-13.3148-37.5872c-1.687-6.0972-3.3435-12.2039-4.9229-18.3298
		c-3.6304-14.0815-11.1346-25.0971-24.5612-31.573C1442.3049,166.7765,1440.2107,166.3592,1440.0831,163.9987z"/>
</g>
</svg>
